<svg width="16" height="16" viewBox="0 0 16 16" fill="none" xmlns="http://www.w3.org/2000/svg">
<path d="M13.3899 11.3333C13.7233 10.3333 14 8.95787 14 8C14 4.68629 11.3137 2 8 2C4.68629 2 2 4.68629 2 8C2 8.95787 2.27675 10.3333 2.61008 11.3333" stroke="#393939" stroke-linecap="round" stroke-linejoin="round"/>
<path d="M5.9843 13.0695L4.82567 9.74177C4.70223 9.43104 4.30776 9.27537 3.98324 9.35311C2.97623 9.68884 2.43076 10.7812 2.76491 11.793L3.05691 12.6772C3.39105 13.6889 4.47827 14.237 5.48528 13.9012C5.7926 13.7704 6.06962 13.3931 5.9843 13.0695Z" stroke="#393939" stroke-linecap="round" stroke-linejoin="round"/>
<path d="M10.0157 13.0695L11.1743 9.74177C11.2977 9.43104 11.6922 9.27537 12.0167 9.35311C13.0237 9.68884 13.5692 10.7812 13.2351 11.793L12.9431 12.6772C12.6089 13.6889 11.5217 14.237 10.5147 13.9012C10.2073 13.7704 9.93033 13.3931 10.0157 13.0695Z" stroke="#393939" stroke-linecap="round" stroke-linejoin="round"/>
</svg>
