<svg width="21" height="20" viewBox="0 0 21 20" fill="none" xmlns="http://www.w3.org/2000/svg">
<path d="M6.71658 15.7417C6.64991 15.7417 6.58326 15.7333 6.51659 15.725C6.01659 15.6583 5.59159 15.3416 5.38325 14.8916L4.33325 12.5833C2.66658 11.35 1.70825 9.50832 1.70825 7.50832C1.70825 3.94999 4.79159 1.04999 8.58325 1.04999C11.2583 1.04999 13.6999 2.51665 14.8083 4.79165C15.2333 5.63331 15.4583 6.54999 15.4583 7.50832C15.4583 10.975 12.5333 13.8166 8.88325 13.9583L7.83326 15.225C7.54992 15.55 7.14158 15.7417 6.71658 15.7417ZM8.58325 2.29165C5.48325 2.29165 2.95825 4.62498 2.95825 7.49998C2.95825 9.14165 3.77491 10.6583 5.19158 11.6583C5.28325 11.725 5.35825 11.8083 5.39991 11.9083L6.51659 14.3666C6.55826 14.4583 6.64159 14.4833 6.68325 14.4833C6.72492 14.4917 6.80825 14.4833 6.86659 14.4166L8.09992 12.9333C8.21658 12.7917 8.39159 12.7083 8.58325 12.7083C11.6833 12.7083 14.2083 10.375 14.2083 7.49998C14.2083 6.74165 14.0333 6.01662 13.6916 5.34162C12.7916 3.48329 10.7833 2.29165 8.58325 2.29165Z" fill="#393939"/>
<path d="M14.6167 18.9583C14.1833 18.9583 13.7833 18.7667 13.5 18.4333L12.45 17.175C10.4333 17.0917 8.53332 16.1667 7.31665 14.6667C7.12498 14.4333 7.13332 14.1 7.32499 13.875L8.09998 12.9417C8.21665 12.8 8.39165 12.7167 8.58332 12.7167C11.6833 12.7167 14.2083 10.3834 14.2083 7.50835C14.2083 6.75002 14.0333 6.02499 13.6917 5.34999C13.5833 5.13333 13.6083 4.87501 13.7583 4.68334C13.9083 4.49167 14.1583 4.40832 14.3917 4.45832C17.475 5.16666 19.625 7.74167 19.625 10.725C19.625 12.725 18.6667 14.5667 17 15.8L15.95 18.1083C15.7333 18.575 15.3083 18.8917 14.8 18.95C14.7417 18.9583 14.675 18.9583 14.6167 18.9583ZM8.63332 14.25C9.67498 15.3083 11.175 15.925 12.75 15.925C12.9333 15.925 13.1083 16.0083 13.2333 16.15L14.4667 17.6333C14.525 17.7083 14.6 17.7167 14.65 17.7083C14.6833 17.7083 14.775 17.6833 14.825 17.5833L15.9417 15.125C15.9917 15.025 16.0583 14.9333 16.15 14.875C17.5667 13.875 18.3833 12.3583 18.3833 10.7167C18.3833 8.71666 17.1583 6.9417 15.2917 6.0667C15.4083 6.53337 15.4666 7.00834 15.4666 7.50001C15.4666 10.9667 12.5416 13.8083 8.89165 13.95L8.63332 14.25Z" fill="#393939"/>
<path d="M10.6667 8.125H6.5C6.15833 8.125 5.875 7.84167 5.875 7.5C5.875 7.15833 6.15833 6.875 6.5 6.875H10.6667C11.0083 6.875 11.2917 7.15833 11.2917 7.5C11.2917 7.84167 11.0083 8.125 10.6667 8.125Z" fill="#393939"/>
</svg>
