<svg width="16" height="16" viewBox="0 0 16 16" fill="none" xmlns="http://www.w3.org/2000/svg">
<path d="M13.3333 9.33678V7.10705C13.3333 6.56182 13.3333 6.2892 13.2318 6.04407C13.1303 5.79893 12.9376 5.60616 12.5522 5.22062L9.39456 2.06155C9.06196 1.72881 8.89569 1.56245 8.68963 1.46387C8.64676 1.44337 8.60289 1.42517 8.55809 1.40935C8.34269 1.33331 8.10756 1.33331 7.63716 1.33331C5.47384 1.33331 4.39217 1.33331 3.65951 1.92429C3.5115 2.04367 3.37668 2.17856 3.25734 2.32663C2.66663 3.0596 2.66663 4.14175 2.66663 6.30603V9.33678C2.66663 11.852 2.66663 13.1096 3.44767 13.891C4.0764 14.52 5.01358 14.6427 6.66663 14.6666M8.66663 1.66679V2.00027C8.66663 3.88671 8.66663 4.82993 9.25243 5.41597C9.83823 6.00201 10.781 6.00201 12.6666 6.00201H13" stroke="#2C2C2C" stroke-linecap="round" stroke-linejoin="round"/>
<path d="M10.3392 9.88098C10.4609 9.59518 10.8725 9.59518 10.9941 9.88098L11.5553 11.1992L13.006 11.3128C13.3215 11.3375 13.4489 11.7252 13.2079 11.927L12.1044 12.8505L12.4423 14.2347C12.5161 14.5366 12.1829 14.7759 11.9131 14.6149L10.6667 13.8711L9.42026 14.6149C9.15046 14.7759 8.81726 14.5366 8.891 14.2347L9.22893 12.8505L8.12546 11.927C7.88446 11.7252 8.01186 11.3375 8.32733 11.3128L9.77806 11.1992L10.3392 9.88098Z" stroke="#2C2C2C" stroke-linecap="round" stroke-linejoin="round"/>
</svg>
