<svg width="20" height="20" viewBox="0 0 20 20" fill="none" xmlns="http://www.w3.org/2000/svg">
<path d="M17.3834 6.97498L11.6084 2.35831C10.7167 1.64164 9.27506 1.64164 8.39172 2.34998L2.61672 6.97498C1.96672 7.49164 1.55006 8.58331 1.69172 9.39998L2.80006 16.0333C3.00006 17.2166 4.13339 18.175 5.33339 18.175H14.6667C15.8584 18.175 17.0001 17.2083 17.2001 16.0333L18.3084 9.39998C18.4417 8.58331 18.0251 7.49164 17.3834 6.97498ZM10.0001 12.9166C8.85006 12.9166 7.91672 11.9833 7.91672 10.8333C7.91672 9.68331 8.85006 8.74998 10.0001 8.74998C11.1501 8.74998 12.0834 9.68331 12.0834 10.8333C12.0834 11.9833 11.1501 12.9166 10.0001 12.9166Z" fill="#35959E"/>
</svg>
