<svg width="16" height="16" viewBox="0 0 16 16" fill="none" xmlns="http://www.w3.org/2000/svg">
<g clip-path="url(#clip0_25_2920)">
<path d="M2.81485 14.6632V12.2967C2.81485 11.4491 2.59289 11.0085 2.15659 10.2718C1.63357 9.38885 1.33337 8.35831 1.33337 7.25771C1.33337 3.98575 3.9865 1.33331 7.25931 1.33331C10.5321 1.33331 13.1852 3.98575 13.1852 7.25771C13.1852 7.64418 13.1852 7.83745 13.2014 7.94578C13.2399 8.20478 13.3608 8.42758 13.4796 8.65818L14.6667 10.9604L13.7338 11.4268C13.4634 11.5619 13.3282 11.6295 13.234 11.7542C13.1398 11.8789 13.1134 12.0197 13.0603 12.3012L13.0551 12.3287C12.9336 12.9737 12.7996 13.6857 12.422 14.1349C12.2886 14.2935 12.1236 14.4224 11.9373 14.5132C11.6298 14.6632 11.2518 14.6632 10.4958 14.6632C10.146 14.6632 9.79524 14.6712 9.44551 14.6628C8.61651 14.6426 8.00004 13.9456 8.00004 13.1362" stroke="#393939" stroke-linecap="round" stroke-linejoin="round"/>
<path d="M9.59204 7.02098C9.30784 7.02098 9.04864 6.91345 8.85231 6.73651M9.59204 7.02098C9.59204 7.78491 9.14944 8.51051 8.29744 8.51051C7.44544 8.51051 7.00291 9.23605 7.00291 9.99998M9.59204 7.02098C11.0249 7.02098 11.0249 4.78676 9.59204 4.78676C9.46184 4.78676 9.33691 4.80933 9.22084 4.85081C9.29084 3.18544 6.88997 2.73331 6.34619 4.29343M6.34619 4.29343C6.74224 4.56071 7.00291 5.01547 7.00291 5.53151M6.34619 4.29343C5.11165 3.46021 3.46593 4.95538 4.24887 6.28849C2.93488 6.48549 3.07537 8.51051 4.41371 8.51051C4.789 8.51051 5.12078 8.32291 5.3216 8.03585" stroke="#393939" stroke-linecap="round" stroke-linejoin="round"/>
</g>
<defs>
<clipPath id="clip0_25_2920">
<rect width="16" height="16" fill="white"/>
</clipPath>
</defs>
</svg>
