<svg width="24" height="28" viewBox="0 0 24 28" fill="none" xmlns="http://www.w3.org/2000/svg">
<path d="M16.4407 25.3478L16.9929 24.6576C17.4781 24.0511 18.5085 24.1 18.9184 24.7488C19.4114 25.5295 20.6292 25.3743 20.9669 24.6562C20.9845 24.6189 20.9405 24.7123 20.9781 24.3892C21.0156 24.0661 21 23.9923 20.9687 23.8448L19.0456 14.7641C18.5623 12.482 18.3206 11.3409 17.4893 10.6704C16.6581 10 15.4848 10 13.1384 10H10.8616C8.51517 10 7.34194 10 6.51066 10.6704C5.67937 11.3409 5.43771 12.482 4.95439 14.7641L3.0313 23.8448C3.00004 23.9923 2.98441 24.0661 3.02194 24.3892C3.05946 24.7123 3.01554 24.6189 3.0331 24.6562C3.37084 25.3743 4.58856 25.5295 5.08165 24.7488C5.49152 24.1 6.52187 24.0511 7.00709 24.6576L7.55934 25.3478C8.25514 26.2174 9.70819 26.2174 10.404 25.3478L10.4908 25.2392C11.2291 24.3165 12.7709 24.3165 13.5092 25.2392L13.596 25.3478C14.2918 26.2174 15.7449 26.2174 16.4407 25.3478Z" stroke="#35959E" stroke-width="1.5" stroke-linejoin="round"/>
<path d="M2.48336 13.5C1.89805 12.892 2.00824 12.1089 2.00824 10.1518C2.00824 8.1946 2.00824 7.21602 2.59355 6.60801C3.17886 6 4.1209 6 6.00497 6H17.9952C19.8792 6 20.8213 6 21.4066 6.60801C21.9919 7.21602 21.9919 8.1946 21.9919 10.1518C21.9919 12.1089 22.1014 12.892 21.5161 13.5" stroke="#35959E" stroke-width="1.5" stroke-linecap="round"/>
<path d="M12 14H9" stroke="#35959E" stroke-width="1.5" stroke-linecap="round" stroke-linejoin="round"/>
<path d="M14 18H8" stroke="#35959E" stroke-width="1.5" stroke-linecap="round" stroke-linejoin="round"/>
</svg>
