<svg width="16" height="16" viewBox="0 0 16 16" fill="none" xmlns="http://www.w3.org/2000/svg">
<g clip-path="url(#clip0_25_2866)">
<path d="M9.63548 8.59653C9.53448 9.01433 9.05721 9.3096 8.10268 9.90013C7.17988 10.4709 6.71855 10.7564 6.3467 10.6417C6.19297 10.5942 6.05291 10.5041 5.93996 10.38C5.66675 10.0799 5.66675 9.49767 5.66675 8.33333C5.66675 7.169 5.66675 6.58679 5.93996 6.28663C6.05291 6.16254 6.19297 6.07245 6.3467 6.02502C6.71855 5.91029 7.17988 6.19571 8.10268 6.76653C9.05721 7.35707 9.53448 7.65233 9.63548 8.07013C9.67715 8.2426 9.67715 8.42407 9.63548 8.59653Z" stroke="#393939" stroke-linejoin="round"/>
<path d="M13.9984 7.33333C13.9999 7.64673 13.9999 7.97953 13.9999 8.33333C13.9999 11.3189 13.9999 12.8117 13.0725 13.7392C12.1449 14.6667 10.6521 14.6667 7.66658 14.6667C4.68102 14.6667 3.18825 14.6667 2.26075 13.7392C1.33325 12.8117 1.33325 11.3189 1.33325 8.33333C1.33325 5.34777 1.33325 3.85499 2.26075 2.92749C3.18825 2 4.68102 2 7.66658 2C8.02038 2 8.35318 2 8.66658 2.00154" stroke="#393939" stroke-linecap="round"/>
<path d="M12.3333 1.33337L12.5053 1.79806C12.7307 2.40739 12.8435 2.71205 13.0657 2.9343C13.288 3.15655 13.5927 3.26929 14.202 3.49476L14.6667 3.66671L14.202 3.83865C13.5927 4.06413 13.288 4.17687 13.0657 4.39911C12.8435 4.62136 12.7307 4.92603 12.5053 5.53535L12.3333 6.00004L12.1614 5.53535C11.9359 4.92603 11.8232 4.62136 11.6009 4.39911C11.3787 4.17687 11.074 4.06413 10.4647 3.83865L10 3.66671L10.4647 3.49476C11.074 3.26929 11.3787 3.15655 11.6009 2.9343C11.8232 2.71205 11.9359 2.40739 12.1614 1.79806L12.3333 1.33337Z" stroke="#393939" stroke-linejoin="round"/>
</g>
<defs>
<clipPath id="clip0_25_2866">
<rect width="16" height="16" fill="white"/>
</clipPath>
</defs>
</svg>
